<svg width="472" height="650" viewBox="0 0 472 650" fill="none" xmlns="http://www.w3.org/2000/svg">
<path d="M507.313 0.107763C473.052 9.58116 208.915 85.4263 143.603 103.735C142.388 104.075 141.317 104.801 140.553 105.804C139.788 106.806 139.37 108.031 139.364 109.291V467.626C139.365 468.227 139.18 468.813 138.835 469.304C138.489 469.795 137.999 470.167 137.433 470.368L97.0029 484.223C69.4205 495.016 0 508.421 0 570.093C0 621.652 35.7555 644.864 66.5752 648.839C70.3198 649.511 74.1099 649.899 77.913 650C88.612 650 130.726 639.729 155.289 623.77C185.818 603.881 185.818 603.518 185.818 551.291V246.634C185.818 245.328 186.718 245.415 187.967 245.081L460.887 169.758C461.327 169.637 461.789 169.621 462.235 169.712C462.682 169.803 463.101 169.997 463.459 170.279C463.817 170.562 464.103 170.925 464.294 171.338C464.485 171.752 464.576 172.205 464.56 172.66V398.309C464.559 398.915 464.367 399.505 464.013 399.997C463.659 400.489 463.16 400.858 462.586 401.051C449.665 405.404 434.669 410.481 424.145 414.282C379.461 430.415 325.182 440.526 325.182 499.064C325.182 554.932 366.207 578.246 392.396 580.059C402.738 580.843 413.137 580.356 423.361 578.609C436.426 576.607 458.332 570.049 478.729 557.05C511 536.479 511 536.073 511 475.852V2.90771C511.001 2.45929 510.898 2.01675 510.699 1.61483C510.5 1.21292 510.21 0.862557 509.853 0.591261C509.496 0.319966 509.081 0.135116 508.64 0.0512261C508.199 -0.0326637 507.745 -0.0133112 507.313 0.107763Z" fill="white" fill-opacity="0.22"/>
</svg>
